<svg id="Group_235" data-name="Group 235" xmlns="http://www.w3.org/2000/svg" width="52.868" height="67.007" viewBox="0 0 52.868 67.007">
  <path id="Path_6" data-name="Path 6" d="M262.981,118.159a8.987,8.987,0,0,0,10.217,7.333l3.5,13.051-3.22.863a3.116,3.116,0,1,0,1.613,6.019l8.336-2.234a3.116,3.116,0,1,0-1.613-6.019l-3.22.863-3.5-13.051a8.985,8.985,0,0,0,5.182-11.459l-.393-1.076a.982.982,0,0,0-1.844.674l.393,1.076a7.025,7.025,0,1,1-13.518,3.622l-.9-5.152a4.342,4.342,0,0,1,1.261-.178,6.374,6.374,0,0,0,5.189-2.824,4.417,4.417,0,0,1,3.659-1.991,6.086,6.086,0,0,0,1.824-.283l.624,1.708a.982.982,0,0,0,1.844-.674l-4.406-12.057a2.279,2.279,0,0,0-2.744-1.426l-9.768,2.617a2.278,2.278,0,0,0-1.663,2.607ZM262,99.458l9.768-2.617a.326.326,0,0,1,.392.2l3.107,8.5a4.422,4.422,0,0,1-1.225.167,6.374,6.374,0,0,0-5.189,2.824,4.417,4.417,0,0,1-3.658,1.991,6.491,6.491,0,0,0-1.526.194L261.766,99.83A.325.325,0,0,1,262,99.458Zm21.612,41.3a1.146,1.146,0,0,1-.7.537h0l-8.336,2.234a1.153,1.153,0,0,1-.6-2.227l8.336-2.233a1.161,1.161,0,0,1,.3-.04,1.153,1.153,0,0,1,1,1.729Z" transform="translate(-232.865 -82.45)" fill="#fff"/>
  <path id="Path_7" data-name="Path 7" d="M220.353,11.08a1.825,1.825,0,0,0,1.794-2.131l-.3-1.746,1.269-1.237a1.821,1.821,0,0,0-1.009-3.107L220.353,2.6l-.784-1.589a1.821,1.821,0,0,0-3.267,0L215.518,2.6l-1.753.255a1.822,1.822,0,0,0-1.01,3.107L214.024,7.2l-.3,1.746a1.822,1.822,0,0,0,2.643,1.92l1.568-.825,1.568.825A1.822,1.822,0,0,0,220.353,11.08Zm-3.265-2.808L215.707,9l.264-1.537a1.821,1.821,0,0,0-.524-1.612L214.33,4.761l1.544-.224a1.822,1.822,0,0,0,1.371-1l.69-1.4.69,1.4a1.822,1.822,0,0,0,1.372,1l1.543.224-1.117,1.088a1.821,1.821,0,0,0-.524,1.612L220.163,9l-1.38-.726a1.82,1.82,0,0,0-1.7,0Z" transform="translate(-191.501 0)" fill="#fff"/>
  <path id="Path_8" data-name="Path 8" d="M176.717,44.493a.982.982,0,1,0,1.6-1.136l-3.147-4.434a.982.982,0,0,0-1.6,1.136Z" transform="translate(-157.766 -33.47)" fill="#fff"/>
  <path id="Path_9" data-name="Path 9" d="M134.868,88.116l5.686,1.634a.982.982,0,0,0,.542-1.887L135.41,86.23a.982.982,0,0,0-.542,1.887Z" transform="translate(-123.669 -74.911)" fill="#fff"/>
  <path id="Path_10" data-name="Path 10" d="M304.51,50.721a.978.978,0,0,0,.62-.221l4.8-3.922a.982.982,0,1,0-1.242-1.52l-4.8,3.922a.982.982,0,0,0,.622,1.742Z" transform="translate(-270.874 -38.968)" fill="#fff"/>
  <path id="Path_11" data-name="Path 11" d="M59.474,143.521a8.985,8.985,0,0,0,5.182,11.459l-3.5,13.05-3.22-.863a3.116,3.116,0,0,0-1.613,6.019l8.336,2.234a3.116,3.116,0,1,0,1.613-6.019l-3.22-.863,3.5-13.049a8.9,8.9,0,0,0,4.258-.373.982.982,0,0,0-.634-1.858,7.026,7.026,0,0,1-8.858-9.064l1.8-4.912a4.339,4.339,0,0,1,1.181.476,6.374,6.374,0,0,0,5.906.149,4.418,4.418,0,0,1,4.164.105,6.1,6.1,0,0,0,1.721.667l-1.249,7.136a7.015,7.015,0,0,1-1.55,3.322.982.982,0,0,0,1.5,1.268,8.98,8.98,0,0,0,1.985-4.252l3.148-17.99a2.278,2.278,0,0,0-1.663-2.607l-9.768-2.617a2.278,2.278,0,0,0-2.744,1.426l-1.2,3.286a.982.982,0,1,0,1.844.674l1.2-3.286a.326.326,0,0,1,.392-.2l9.768,2.617a.326.326,0,0,1,.238.373l-1.561,8.918a4.418,4.418,0,0,1-1.144-.468,6.374,6.374,0,0,0-5.906-.149,4.418,4.418,0,0,1-4.163-.105,6.48,6.48,0,0,0-1.418-.6l1.126-3.082a.982.982,0,0,0-1.844-.674ZM65.767,171.3a1.153,1.153,0,1,1-.6,2.227l-8.336-2.234a1.153,1.153,0,1,1,.6-2.227Z" transform="translate(-54.016 -108.52)" fill="#fff"/>
</svg>
