<svg id="Group_230" data-name="Group 230" xmlns="http://www.w3.org/2000/svg" width="61.628" height="61.628" viewBox="0 0 61.628 61.628">
  <path id="Path_1" data-name="Path 1" d="M61.569,60.405,52.542,36.625a.9.9,0,0,0-.4-.466l-9.616-5.417,2.807-4.451a17.153,17.153,0,1,0-29.036,0L19.1,30.742,9.488,36.159a.9.9,0,0,0-.4.466L.059,60.405a.9.9,0,0,0,1.287,1.107l14.512-8.176,14.512,8.176a.9.9,0,0,0,.886,0L45.77,53.336l14.512,8.176a.9.9,0,0,0,1.287-1.107ZM31.717,46.789A2.7,2.7,0,0,0,33.1,45.679l7.731-12.257,3.914,18.417L31.717,59.181ZM17.824,25.327a15.346,15.346,0,1,1,25.981,0c-.12.191-12.015,19.054-12.223,19.38l-.005.008a.9.9,0,0,1-1.528,0c-.121-.191-12.039-19.091-12.221-19.382l0-.007ZM10.659,37.571l8.416-4.741-1.466,6.9a.9.9,0,1,0,1.766.376l1.42-6.681,7.73,12.259a2.712,2.712,0,0,0,1.387,1.107V59.181L16.88,51.839l1.744-8.2a.9.9,0,1,0-1.766-.376l-1.8,8.454-12.429,7Zm35.91,14.143L42.555,32.83l8.415,4.741L59,58.716Z" transform="translate(0 -0.001)" fill="#fff"/>
  <path id="Path_2" data-name="Path 2" d="M193.362,69.93a9.93,9.93,0,1,0-9.93,9.93A9.942,9.942,0,0,0,193.362,69.93Zm-18.055,0a8.125,8.125,0,1,1,8.125,8.125A8.134,8.134,0,0,1,175.307,69.93Z" transform="translate(-152.617 -52.778)" fill="#fff"/>
  <path id="Path_3" data-name="Path 3" d="M216.14,96.319a6.319,6.319,0,1,0-6.319,6.319A6.327,6.327,0,0,0,216.14,96.319Zm-10.833,0a4.514,4.514,0,1,1,4.514,4.514A4.519,4.519,0,0,1,205.307,96.319Z" transform="translate(-179.006 -79.167)" fill="#fff"/>
</svg>
