<svg id="Group_256" data-name="Group 256" xmlns="http://www.w3.org/2000/svg" width="56" height="55.952" viewBox="0 0 56 55.952">
  <path id="Path_12" data-name="Path 12" d="M42.445,0H29.914a.82.82,0,0,0,0,1.641H42.445A11.928,11.928,0,0,1,54.359,13.555V42.4A11.928,11.928,0,0,1,42.445,54.311H13.555A11.928,11.928,0,0,1,1.641,42.4V13.555A11.928,11.928,0,0,1,13.555,1.641H26.086a.82.82,0,0,0,0-1.641H13.555A13.57,13.57,0,0,0,0,13.555V42.4A13.57,13.57,0,0,0,13.555,55.952h28.89A13.57,13.57,0,0,0,56,42.4V13.555A13.57,13.57,0,0,0,42.445,0Zm0,0" fill="#fff"/>
  <path id="Path_13" data-name="Path 13" d="M156.387,228.115a.82.82,0,0,0-.82.82v2.878a2.415,2.415,0,0,0,2.413,2.411h3.636a2.415,2.415,0,0,0,2.413-2.411V222.42h6.021c3.75,0,6.7-.873,8.765-2.6,1.724-1.437,2.757-3.688,3.074-6.692a.82.82,0,0,0-1.632-.172c-.27,2.565-1.108,4.45-2.493,5.6-1.763,1.47-4.358,2.215-7.715,2.215h-6.841a.82.82,0,0,0-.82.82v10.213a.772.772,0,0,1-.772.771h-3.636a.772.772,0,0,1-.772-.771v-2.878A.82.82,0,0,0,156.387,228.115Zm0,0" transform="translate(-138.551 -189.014)" fill="#fff"/>
  <path id="Path_14" data-name="Path 14" d="M218.754,161.643h6.187a6.058,6.058,0,0,0,4.2-1.393,5.605,5.605,0,0,0,1.574-4.35,5.3,5.3,0,0,0-1.6-4.281h0a6.344,6.344,0,0,0-4.18-1.282h-6.187a.82.82,0,0,0-.82.82v9.666A.82.82,0,0,0,218.754,161.643Zm.82-9.666h5.367a4.781,4.781,0,0,1,3.127.9,3.8,3.8,0,0,1,1.01,3.024,4.08,4.08,0,0,1-1.034,3.133,4.494,4.494,0,0,1-3.1.969h-5.367Zm0,0" transform="translate(-194.097 -133.893)" fill="#fff"/>
  <path id="Path_15" data-name="Path 15" d="M181.9,107.582a9.809,9.809,0,0,0-3.089-6.637,12.233,12.233,0,0,0-8.32-2.742H157.979a2.415,2.415,0,0,0-2.413,2.412v22.94a.82.82,0,0,0,1.641,0v-22.94a.773.773,0,0,1,.772-.771h12.515a10.655,10.655,0,0,1,7.239,2.336,8.235,8.235,0,0,1,2.538,5.571.82.82,0,1,0,1.632-.169Zm0,0" transform="translate(-138.551 -87.462)" fill="#fff"/>
</svg>
