<svg xmlns="http://www.w3.org/2000/svg" width="68.173" height="62.61" viewBox="0 0 68.173 62.61">
  <path id="Path_4" data-name="Path 4" d="M65.264,32H62.9a28.582,28.582,0,0,0-2.615-10.336,1,1,0,1,0-1.809.84A26.6,26.6,0,0,1,60.9,32H15.219a1,1,0,1,0,0,1.994H65.264a.915.915,0,0,1,.914.915v1.217a.915.915,0,0,1-.914.915H2.909a.915.915,0,0,1-.914-.915V34.906a.915.915,0,0,1,.914-.915H10.57a1,1,0,1,0,0-1.994h-3.3a26.872,26.872,0,0,1,25.018-25H32.3q.407-.027.805-.041l.159-.006.282-.007c.179,0,.358-.006.537-.006.238,0,.476,0,.714.011l.211.006c.183.006.366.016.548.025l.291.017A26.893,26.893,0,0,1,56.257,18.614,1,1,0,1,0,57.9,17.485,28.89,28.89,0,0,0,38.175,5.231,4.855,4.855,0,0,0,38.951,2.6c0-.542-.242-1.541-1.861-2.137a10,10,0,0,0-6.007,0c-1.62.6-1.861,1.6-1.861,2.137a4.861,4.861,0,0,0,.772,2.627A28.875,28.875,0,0,0,5.276,32H2.909A2.913,2.913,0,0,0,0,34.906v1.217a2.912,2.912,0,0,0,2.909,2.91H13.652a12.357,12.357,0,0,0-1.531,1.236l-.02.019a.9.9,0,0,0-.086.092L7.28,46.129a2.749,2.749,0,0,0-3.753.779L1.665,49.653A2.759,2.759,0,0,0,2.4,53.477l12.741,8.656a2.736,2.736,0,0,0,1.542.477,2.8,2.8,0,0,0,.524-.05,2.735,2.735,0,0,0,1.762-1.16l1.862-2.746A2.759,2.759,0,0,0,20.1,54.83l-.073-.049a6.447,6.447,0,0,1,3.355-2.025,21.916,21.916,0,0,1,8.063.135,19.05,19.05,0,0,0,8.128-.438l3.672-1.015a18.9,18.9,0,0,0,6.691-3.384l.044-.037,6.3-5.583a3.077,3.077,0,0,0,.938-3.4h8.044a2.912,2.912,0,0,0,2.909-2.909V34.906A2.912,2.912,0,0,0,65.264,32Zm-31.177-30a4.671,4.671,0,0,1,2.87.647,2.871,2.871,0,0,1-1.271,2.342c-.2-.01-.39-.019-.583-.026l-.2-.007c-.278-.008-.553-.012-.822-.012-.191,0-.385,0-.581.007l-.285.007-.342.012c-.131.006-.261.011-.391.019a2.871,2.871,0,0,1-1.27-2.342A4.671,4.671,0,0,1,34.086,1.995Zm7.152,37.519a3.29,3.29,0,0,0-.264-.481H50.54L46.4,41.77l-5.9,1.705-.2,0A3.392,3.392,0,0,0,41.238,39.513Zm-10.814-.481-1.439.3-1.113-.3Zm-11.247,18.5-1.862,2.746a.759.759,0,0,1-1.056.2L3.518,51.828a.76.76,0,0,1-.2-1.055l1.862-2.746a.758.758,0,0,1,1.056-.2l.688.467h0L18.975,56.48A.761.761,0,0,1,19.177,57.535ZM55.058,40.858a.877.877,0,0,0-.069.056L48.678,46.5a16.924,16.924,0,0,1-5.967,3.011l-3.672,1.015a17.027,17.027,0,0,1-7.271.393,23.744,23.744,0,0,0-8.839-.11,8.471,8.471,0,0,0-4.563,2.842l-9.426-6.4L13.515,41.7a9.388,9.388,0,0,1,6.026-2.663h.041a7.518,7.518,0,0,1,2.071.385l.439.121,6.6,1.781a1,1,0,0,0,.463.013l8.649-1.8a1.487,1.487,0,0,1,1.13.219,1.339,1.339,0,0,1,.475.568,1.4,1.4,0,0,1-.645,1.8l-2.951,1.562a1,1,0,0,0,.488,1.878l4.377-.095a1,1,0,0,0,.255-.039L47.1,43.644a1,1,0,0,0,.274-.126L53.6,39.4c.522-.322,1.217-.588,1.587-.042A1.187,1.187,0,0,1,55.058,40.858Zm0,0" fill="#fff"/>
</svg>
